<svg width="20" height="26" viewBox="0 0 20 26" fill="none" xmlns="http://www.w3.org/2000/svg">
<path d="M4.09868 21.0516C3.76586 21.7433 3.66775 21.982 3.53938 22.7144L8.0928 21.1167C8.31293 20.9505 8.43546 20.8536 8.66697 20.5345L8.92546 19.7945L8.11952 19.7204C6.53693 20.2112 5.66381 20.4392 4.09868 21.0516Z" fill="#FE5001"/>
<path d="M13.7462 6.21658C9.38805 11.4086 7.16792 14.389 4.74135 20.0603C7.26588 19.34 8.66427 18.9395 11.1035 17.9933C12.4363 16.2357 13.0248 15.084 14.0907 13.0674C14.0794 10.2355 14.1077 8.59841 13.7462 6.21658Z" fill="#FE5001"/>
<path d="M1.77939 25.0499C1.20375 25.2995 0.949344 25.1813 0.619141 24.9651C2.07867 20.4266 1.89539 20.334 2.75042 17.789C2.91932 17.4881 2.94161 17.2043 2.89625 16.6588C2.41154 14.8936 2.14876 13.8494 2.05772 12.4297C3.50463 10.2555 4.31312 9.07155 6.52382 6.70579C8.99042 6.08962 10.3807 5.91584 12.8857 5.62851C7.75142 13.0054 5.40419 13.1462 1.77939 25.0499Z" fill="#FE5001"/>
<path d="M14.0907 4.46363L7.72693 5.44799C9.45224 3.40856 10.6224 2.17031 13.1592 0.505056C14.5118 0.238739 15.2555 -0.00597464 17.3883 0.379526C19.5211 0.765028 19.2841 5.62851 19.0289 6.21658C18.7737 6.80465 14.9638 11.3169 14.9638 11.3169L14.7451 4.68156L14.0907 4.46363Z" fill="#FE5001"/>
<path d="M13.7462 6.21658C9.38805 11.4086 7.16792 14.389 4.74135 20.0603C7.26588 19.34 8.66427 18.9395 11.1035 17.9933C12.4363 16.2357 13.0248 15.084 14.0907 13.0674C14.0794 10.2355 14.1077 8.59841 13.7462 6.21658Z" stroke="black"/>
<path d="M1.77939 25.0499C1.20375 25.2995 0.949344 25.1813 0.619141 24.9651C2.07867 20.4266 1.89539 20.334 2.75042 17.789C2.91932 17.4881 2.94161 17.2043 2.89625 16.6588C2.41154 14.8936 2.14876 13.8494 2.05772 12.4297C3.50463 10.2555 4.31312 9.07155 6.52382 6.70579C8.99042 6.08962 10.3807 5.91584 12.8857 5.62851C7.75142 13.0054 5.40419 13.1462 1.77939 25.0499Z" stroke="black"/>
<path d="M14.0907 4.46363L7.72693 5.44799C9.45224 3.40856 10.6224 2.17031 13.1592 0.505056C14.5118 0.238739 15.2555 -0.00597464 17.3883 0.379526C19.5211 0.765028 19.2841 5.62851 19.0289 6.21658C18.7737 6.80465 14.9638 11.3169 14.9638 11.3169L14.7451 4.68156L14.0907 4.46363Z" stroke="black"/>
</svg>
