<svg width="20" height="26" viewBox="0 0 20 26" fill="none" xmlns="http://www.w3.org/2000/svg">
<path d="M4.0982 21.1883C3.76537 21.88 3.66726 22.1187 3.53889 22.8512L8.09231 21.2534C8.31244 21.0872 8.43497 20.9903 8.66648 20.6712L8.92498 19.9312L8.11903 19.8572C6.53644 20.3479 5.66332 20.576 4.0982 21.1883Z" fill="white"/>
<path d="M13.7457 6.3533C9.38756 11.5453 7.16743 14.5258 4.74086 20.1971C7.2654 19.4767 8.66379 19.0762 11.103 18.13C12.4358 16.3724 13.0244 15.2207 14.0902 13.2041C14.0789 10.3722 14.1072 8.73513 13.7457 6.3533Z" fill="white"/>
<path d="M1.7789 25.1867C1.20326 25.4362 0.948856 25.318 0.618652 25.1018C2.07818 20.5633 1.8949 20.4708 2.74993 17.9257C2.91883 17.6249 2.94113 17.341 2.89576 16.7955C2.41105 15.0303 2.14827 13.9861 2.05723 12.5664C3.50415 10.3922 4.31263 9.20827 6.52333 6.84251C8.98993 6.22634 10.3802 6.05256 12.8852 5.76523C7.75094 13.1421 5.4037 13.283 1.7789 25.1867Z" fill="white"/>
<path d="M14.0902 4.60035L7.72644 5.58471C9.45176 3.54528 10.6219 2.30703 13.1587 0.641775C14.5113 0.375458 15.255 0.130744 17.3878 0.516245C19.5206 0.901746 19.2836 5.76523 19.0284 6.3533C18.7732 6.94137 14.9633 11.4536 14.9633 11.4536L14.7446 4.81828L14.0902 4.60035Z" fill="white"/>
<path d="M13.7457 6.3533C9.38756 11.5453 7.16743 14.5258 4.74086 20.1971C7.2654 19.4767 8.66379 19.0762 11.103 18.13C12.4358 16.3724 13.0244 15.2207 14.0902 13.2041C14.0789 10.3722 14.1072 8.73513 13.7457 6.3533Z" stroke="black"/>
<path d="M1.7789 25.1867C1.20326 25.4362 0.948856 25.318 0.618652 25.1018C2.07818 20.5633 1.8949 20.4708 2.74993 17.9257C2.91883 17.6249 2.94113 17.341 2.89576 16.7955C2.41105 15.0303 2.14827 13.9861 2.05723 12.5664C3.50415 10.3922 4.31263 9.20827 6.52333 6.84251C8.98993 6.22634 10.3802 6.05256 12.8852 5.76523C7.75094 13.1421 5.4037 13.283 1.7789 25.1867Z" stroke="black"/>
<path d="M14.0902 4.60035L7.72644 5.58471C9.45176 3.54528 10.6219 2.30703 13.1587 0.641775C14.5113 0.375458 15.255 0.130744 17.3878 0.516245C19.5206 0.901746 19.2836 5.76523 19.0284 6.3533C18.7732 6.94137 14.9633 11.4536 14.9633 11.4536L14.7446 4.81828L14.0902 4.60035Z" stroke="black"/>
</svg>
